<?xml version="1.0" encoding="UTF-8" standalone="no"?>
<!-- Created with Inkscape (http://www.inkscape.org/) -->

<svg
   width="210mm"
   height="297mm"
   version="1.1"
   viewBox="0 0 793.7 1122.5"
   id="svg1073"
   sodipodi:docname="logo.svg"
   inkscape:version="1.1.2 (0a00cf5339, 2022-02-04)"
   xmlns:inkscape="http://www.inkscape.org/namespaces/inkscape"
   xmlns:sodipodi="http://sodipodi.sourceforge.net/DTD/sodipodi-0.dtd"
   xmlns="http://www.w3.org/2000/svg"
   xmlns:svg="http://www.w3.org/2000/svg">
  <defs
     id="defs1077" />
  <sodipodi:namedview
     id="namedview1075"
     pagecolor="#ffffff"
     bordercolor="#cccccc"
     borderopacity="1"
     inkscape:pageshadow="0"
     inkscape:pageopacity="1"
     inkscape:pagecheckerboard="0"
     inkscape:document-units="mm"
     showgrid="false"
     inkscape:zoom="0.5"
     inkscape:cx="386"
     inkscape:cy="564"
     inkscape:window-width="1920"
     inkscape:window-height="1007"
     inkscape:window-x="0"
     inkscape:window-y="0"
     inkscape:window-maximized="1"
     inkscape:current-layer="svg1073" />
  <g
     transform="translate(4.5416,-231.97)"
     id="g1051">
    <g
       stroke="#ffffff"
       stroke-linecap="round"
       stroke-width="15.118"
       id="g1045">
      <ellipse
         cx="615.06"
         cy="795.23999"
         rx="132.31"
         ry="106.54"
         id="ellipse1039" />
      <ellipse
         cx="615.59003"
         cy="719.65002"
         rx="132.31"
         ry="106.54"
         id="ellipse1041" />
      <rect
         transform="rotate(45)"
         x="875.33002"
         y="4.7586002"
         width="137.64"
         height="137.64"
         id="rect1043" />
    </g>
    <path
       d="m 620.59,719.65 c 10e-6,-20.958 -5,-41.917 -5,-41.917 0,0 -5,20.958 -5,41.917 0,20.958 5,41.915 5,41.915 0,0 5,-20.958 5,-41.915 z"
       fill="#ffffff"
       id="path1047" />
    <path
       d="m 615.59,724.65 c 20.958,10e-6 41.917,-5 41.917,-5 0,0 -20.958,-5 -41.917,-5 -20.958,0 -41.915,5 -41.915,5 0,0 20.958,5 41.915,5 z"
       fill="#ffffff"
       id="path1049" />
  </g>
  <g
     transform="translate(885.22 -85.837)"
     id="g1069">
    <rect
       x="-851.52"
       y="425.4"
       width="390.77"
       height="390.77"
       id="rect1053" />
    <g
       transform="translate(-935.83 -146.13)"
       id="g1067">
      <g
         fill="#fff"
         stroke="#000"
         stroke-linecap="round"
         id="g1061">
        <ellipse
           cx="279.43"
           cy="795.24"
           rx="132.31"
           ry="106.54"
           stroke-width="15.118"
           id="ellipse1055" />
        <ellipse
           cx="279.96"
           cy="719.65"
           rx="132.31"
           ry="106.54"
           stroke-width="15.118"
           id="ellipse1057" />
        <rect
           transform="matrix(.83633 .54823 -.83633 .54823 0 0)"
           x="752.62"
           y="417.87"
           width="142.18"
           height="142.18"
           stroke-width="15.617"
           id="rect1059" />
      </g>
      <path
         d="m286.46 712.62c1e-5 -27.33-6.5-54.661-6.5-54.661s-6.5 27.33-6.5 54.661c0 27.329 6.5 54.659 6.5 54.659s6.5-27.329 6.5-54.659z"
         id="path1063" />
      <path
         d="m280.45 705.9c-0.13528-0.0319 0.14128 0.0419 0.83256 0.11065 0.95609 0.12862 1.9539 0.28804 2.9954 0.45585 3.3222 0.53686 6.6841 1.1228 10.049 1.6977 10.752 1.8377 21.205 3.5611 31.347 5.1202 40.676 6.2531 73.192 9.4596 73.192 9.4596s-31.088-10.057-71.085-19.975c-9.8851-2.4516-20.402-4.9217-31.097-7.1218-3.3636-0.6923-6.7868-1.3704-10.26-1.9734-1.0755-0.18727-2.1979-0.37422-3.3698-0.53836-0.44918-0.0881-1.3154-0.20344-2.602-0.23546h-5.5e-4 -5.4e-4c-1.2876 0.0317-2.1548 0.14684-2.6051 0.23457-1.1777 0.16393-2.3064 0.35063-3.3887 0.53769-3.4985 0.60293-6.9472 1.2806-10.337 1.9726-10.784 2.2003-21.388 4.6699-31.358 7.1213-40.345 9.9195-71.716 19.978-71.716 19.978s32.788-3.2037 73.807-9.4573c10.224-1.5589 20.765-3.2824 31.606-5.1208 3.3906-0.57482 6.7792-1.1609 10.128-1.6983 1.0488-0.16782 2.0544-0.32738 3.0186-0.45632 0.6951-0.0689 0.97554-0.14296 0.84419-0.11127h-2.5e-4 -2.5e-4z"
         id="path1065" />
    </g>
  </g>
  <rect
     x="-460.74"
     y="451.71"
     width="390.77"
     height="390.77"
     fill="none"
     id="rect1071" />
  <path
     style="fill:#000000;stroke-width:1.29745"
     d="m 32.262359,77.943633 393.070711,0.14108 -0.8631,219.478317 -392.224581,0.45037 z M 270.50738,288.97865 c 44.39754,-8.05659 78.34952,-28.58024 84.39003,-51.01294 1.66043,-6.16635 -0.51908,-19.01466 -3.41397,-20.12554 -1.0132,-0.3888 -7.24111,2.55955 -13.83979,6.55191 -30.32419,18.34681 -65.5473,26.75634 -112.06831,26.75634 -51.07759,0 -89.50688,-9.39513 -118.61761,-28.99946 -3.86638,-2.60376 -8.014041,-4.73413 -9.217021,-4.73413 -3.15332,0 -5.37714,7.94981 -4.72928,16.90646 1.85974,25.71062 42.610031,49.33031 98.351781,57.00666 15.20582,2.09404 62.37392,0.69391 79.14417,-2.3493 z m -11.07527,-50.11978 c 38.76522,-5.44167 72.39569,-19.37171 87.10125,-36.07808 5.56782,-6.32539 11.95302,-17.18442 10.78901,-18.34843 -0.57766,-0.57766 -42.38575,11.46098 -116.82053,33.63846 l -16.38237,4.88105 -46.54374,-13.74542 c -63.23675,-18.67527 -84.827481,-24.65113 -85.745921,-23.73269 -1.69077,1.69078 4.45342,11.9011 11.418641,18.97529 19.40171,19.70527 51.90793,31.17274 104.33282,36.80629 8.7405,0.93925 37.58497,-0.3939 51.85084,-2.39647 z m -3.84535,-33.77351 c 37.57364,-10.79023 83.66826,-24.87965 89.86126,-27.46726 3.66663,-1.53201 4.28657,-2.22062 2.76553,-3.07184 -2.77482,-1.55286 -48.99396,-15.51647 -51.3591,-15.51647 -1.18429,0 0.67582,2.87962 4.71476,7.29886 3.66891,4.01437 6.36586,7.60375 5.99322,7.97638 -0.37264,0.37264 -6.08918,-3.43262 -12.70342,-8.45614 -6.61424,-5.02352 -14.3613,-10.29355 -17.21568,-11.71119 -7.55343,-3.75142 -45.49798,-15.06262 -47.69759,-14.21856 -1.07516,0.41258 -2.54639,4.14834 -3.45747,8.77924 -0.90105,4.57993 -2.07324,7.57076 -2.71438,6.92571 -0.62066,-0.62445 -1.91704,-4.63846 -2.88086,-8.92004 -2.06576,-9.17667 0.30819,-9.0792 -25.62803,-1.05226 -22.87357,7.07909 -27.6516,9.39463 -42.04223,20.37466 -6.17954,4.71498 -11.84965,8.57269 -12.60023,8.57269 -0.75059,0 1.59218,-3.31756 5.20615,-7.37234 3.61397,-4.05479 6.33118,-7.61202 6.03823,-7.90497 -0.29295,-0.29295 -5.97642,1.02015 -12.62995,2.91799 -25.76982,7.35053 -41.528931,12.6331 -40.459561,13.56234 3.138431,2.72717 122.799451,39.20437 125.613971,38.2919 0.74477,-0.24147 14.78269,-4.29538 31.19538,-9.0087 z m -122.6086,-49.25263 c 19.04592,-5.75772 35.01177,-11.32741 37.62592,-13.12581 5.47596,-3.76718 30.48074,-27.59022 29.72606,-28.32117 -0.29345,-0.2842 -7.24782,0.60598 -15.45416,1.97819 -45.21679,7.56084 -75.32536,22.42373 -90.027541,44.44146 -3.89325,5.83047 -3.47449,7.53205 1.49438,6.07223 1.95277,-0.57372 18.438671,-5.54392 36.635341,-11.0449 z m 223.16062,9.87895 c 0,-1.84162 -7.13591,-10.89395 -13.14542,-16.67574 -7.85106,-7.55357 -24.91832,-17.51889 -38.4354,-22.44189 -12.25075,-4.46179 -44.82951,-11.70401 -52.21482,-11.60729 l -4.54106,0.0595 12.97446,12.35618 c 7.13595,6.79591 15.30985,13.71758 18.16423,15.3815 5.91772,3.44964 19.25457,8.10097 49.95165,17.42103 21.16037,6.42457 27.24636,7.65461 27.24636,5.50674 z M 200.44532,135.6911 c 16.05056,-4.48832 19.11213,-6.17866 20.02739,-11.05738 1.1619,-6.19343 3.82328,-7.96558 5.71789,-3.80739 0.82559,1.81199 1.50108,4.12937 1.50108,5.14973 0,1.02037 1.31366,2.70237 2.91925,3.73778 3.47548,2.24126 26.38136,8.95327 28.33369,8.30249 0.74912,-0.2497 -4.2227,-5.23329 -11.04847,-11.07465 -17.40051,-14.891 -24.77151,-16.5048 -37.20912,-8.1465 -6.91752,4.6487 -24.64521,20.97084 -21.91871,20.18089 1.07039,-0.31013 6.32504,-1.78837 11.677,-3.28497 z m 16.23515,-28.80248 7.43252,-8.028007 7.02586,7.548787 c 3.86423,4.15184 7.36046,7.21421 7.7694,6.80527 1.39224,-1.39225 -12.15612,-18.994557 -14.65014,-19.033767 -1.76332,-0.0277 -7.63965,6.476567 -13.35106,14.777797 -5.77714,8.39681 -2.99279,7.39846 5.77342,-2.07008 z"
     id="path1606"
     sodipodi:nodetypes="cccccsssssssssssssscssssssssssssssssssssssssssssssssssssscsssssssssssssssscsssss" />
  <path
     style="fill:#000000;stroke-width:1.90515"
     d="m 178.26154,1056.9414 c -27.54845,-7.247 -46.30628,-17.3378 -62.73024,-33.7456 C 88.710593,996.40149 80.836153,961.85736 93.907303,928.33446 l 2.13214,-5.4682 4.343367,8.5464 c 14.49007,28.5117 52.45724,52.39873 93.16863,58.61693 54.59474,8.3387 114.75694,-17.73753 136.22034,-59.04223 l 2.45292,-4.7205 2.63091,7.5782 c 16.92316,48.74633 -17.36735,101.60274 -78.48287,120.97594 -18.96771,6.0126 -59.16733,7.1038 -78.1112,2.1204 z m -5.71546,-101.36074 c -48.61831,-8.1059 -90.708737,-42.6799 -95.512867,-78.4563 -0.66835,-4.9772 -0.60347,-9.0494 0.14419,-9.0494 1.21187,0 117.479177,83.7916 121.945537,87.8838 2.22192,2.0358 -13.43481,1.8131 -26.57686,-0.3781 z m 57.15454,-1.0373 c 3.40209,-2.6363 40.72758,-29.9378 100.74503,-73.6894 l 20.72869,-15.1108 -1.32298,9.2628 c -3.09059,21.639 -18.94852,44.6509 -40.73514,59.112 -19.21053,12.7513 -54.0647,23.6007 -75.2966,23.4385 -7.53433,-0.058 -7.73949,-0.2077 -4.119,-3.0131 z m -21.88224,-59.1423 c -4.48985,-11.929 -9.46556,-33.041 -9.51968,-40.3924 -0.0284,-3.8702 -0.71243,-4.3226 -4.93273,-3.2634 -15.2613,3.8303 -85.95259,11.486 -88.1659,9.5481 -2.08286,-1.8236 56.53135,-27.1735 81.57378,-35.2795 l 16.13291,-5.2221 3.92182,-11.74586 c 2.15699,-6.46019 4.67125,-11.89618 5.58725,-12.07997 0.916,-0.18379 3.57612,4.78629 5.91138,11.04464 2.33526,6.25834 5.42096,11.95829 6.8571,12.66659 1.43614,0.7083 12.89898,4.9091 25.47297,9.3351 22.57203,7.9452 55.5678,22.2944 66.6803,28.9979 l 5.71545,3.4477 -7.6206,-0.9264 c -4.19134,-0.5095 -14.90781,-1.4236 -23.81439,-2.0314 -14.89554,-1.0164 -44.30489,-4.9159 -58.13044,-7.7077 l -5.73875,-1.1589 -2.26021,14.2057 c -2.2802,14.3311 -9.06085,37.1184 -11.92859,40.0876 -0.8534,0.8836 -3.43716,-3.403 -5.74167,-9.5257 z M 76.335943,838.89086 c 0,-8.6466 5.86607,-23.95152 13.64502,-35.60059 12.950507,-19.39354 35.587807,-35.0607 62.777537,-43.44804 13.50387,-4.1656 41.8439,-8.88507 45.67853,-7.60686 1.28066,0.42689 -7.45015,7.99594 -19.40183,16.82011 -66.51336,49.10818 -100.982797,74.25248 -101.790017,74.25248 -0.50008,0 -0.90924,-1.9877 -0.90924,-4.4171 z m 213.376937,-38.6013 c -31.95891,-23.56997 -59.39308,-44.20058 -60.96483,-45.8458 -2.58956,-2.71061 -1.60631,-2.86388 10.47833,-1.63336 41.78198,4.25444 75.35608,21.25523 95.94684,48.58424 9.72988,12.91394 19.56613,42.14632 14.07564,41.83142 -0.78587,-0.045 -27.57706,-19.3665 -59.53598,-42.9365 z"
     id="path1256"
     sodipodi:nodetypes="ssscssscssscssscsscsscsssssscsssssscssscssssssssssssssss" />
  <path
     d="m 557.13561,1039.0001 c -1.57175,-0.308 -9.28761,-1.6006 -17.14635,-2.8725 -56.98614,-9.2233 -108.99849,-43.25738 -129.38104,-84.66018 -5.89421,-11.9729 -11.52179,-32.1509 -11.572,-41.4921 -0.0282,-5.2377 -0.0242,-5.2392 13.82458,-5.2392 h 13.85273 l 2.23074,11.7381 c 6.63333,34.9045 37.17043,66.0417 79.94999,81.5212 16.62763,6.01648 39.05322,11.52398 46.92405,11.52398 3.09308,0 -9.17984,-13.33548 -48.22136,-52.39628 l -52.3704,-52.3964 64.2906,-64.29063 64.29058,-64.29059 64.29059,64.29059 64.2906,64.29063 -52.37041,52.3964 c -57.68871,57.71728 -56.53899,55.64638 -26.95636,48.55448 34.25507,-8.21198 60.47665,-22.27818 80.21803,-43.03189 14.36994,-15.10689 22.15844,-29.5318 25.16693,-46.61129 l 1.99015,-11.2983 h 14.26385 14.26384 l -1.35866,10.0021 c -8.48979,62.4984 -64.07669,108.90878 -146.64812,122.43888 -14.69961,2.4086 -54.9634,3.5587 -63.82256,1.823 z m 71.44838,-90.45068 43.79262,-43.8237 -44.28443,-44.2844 -44.28445,-44.28445 -44.28443,44.28445 -44.28445,44.2844 43.79262,43.8237 c 24.08593,24.103 44.23525,43.8237 44.77626,43.8237 0.541,0 20.69032,-19.7207 44.77626,-43.8237 z m -51.04699,-3.0043 c -2.69208,-8.2992 -5.43892,-17.8199 -6.1041,-21.1571 -0.97601,-4.8964 -2.38066,-6.3135 -7.27709,-7.3417 -11.25491,-2.3633 -35.59747,-10.8973 -35.59747,-12.4797 0,-1.53261 23.50875,-9.5357 35.59747,-12.1184 4.88914,-1.0446 6.30255,-2.4749 7.27709,-7.364 0.66518,-3.3372 3.41202,-12.8579 6.1041,-21.1571 4.50113,-13.87626 5.11011,-14.7953 7.57442,-11.43089 2.45843,3.3564 8.2827,21.20969 10.93292,33.51289 0.82827,3.8452 2.60824,5.4053 7.2894,6.3892 10.88079,2.2869 35.72338,10.88589 35.72338,12.3652 0,1.3695 -25.82388,10.0233 -36.64515,12.2801 -3.72167,0.7762 -5.53203,2.5751 -6.33682,6.2968 -2.69749,12.4741 -8.49785,30.2691 -10.96373,33.6356 -2.46431,3.3644 -3.07329,2.4454 -7.57442,-11.4309 z"
     style="fill:#000000;stroke-width:1.90515"
     id="path2916" />
  <path
     d="m 580.69923,291.99641 c -53.24019,-3.2488 -102.20249,-29.06732 -105.8703,-55.82687 -0.92337,-6.7367 1.38103,-16.56359 4.13167,-17.61912 1.05655,-0.40542 5.03547,1.33074 8.84203,3.85816 34.14935,22.67389 85.2986,33.63652 138.03391,29.58429 41.30694,-3.17405 70.02645,-11.4442 94.68549,-27.26593 12.09635,-7.76122 13.49887,-7.62661 15.96511,1.53227 1.7019,6.32037 -10e-4,14.48484 -4.70822,22.56368 -10.95517,18.80489 -48.65382,36.93029 -86.85614,41.76016 -15.62913,1.97596 -44.5675,2.61281 -64.22355,1.41336 z m -20.1104,-53.82723 c -32.17788,-5.97109 -59.67864,-18.00677 -75.00385,-32.82538 -9.19861,-8.89452 -15.12942,-19.65617 -10.83265,-19.65617 1.05376,0 30.55054,8.46583 65.54841,18.81296 34.99786,10.34712 64.57582,18.81295 65.72876,18.81295 1.15297,0 25.55572,-6.93821 54.22837,-15.41825 67.7565,-20.03926 77.35013,-22.72227 78.20198,-21.87041 1.51648,1.51648 -5.33308,12.21968 -11.96138,18.69096 -13.00895,12.7008 -34.672,23.28689 -62.56885,30.57554 -14.9663,3.91026 -15.49617,3.95317 -54.03787,4.37644 -30.35859,0.33339 -41.20731,0.004 -49.30292,-1.49864 z m -4.51445,-37.62465 c -46.87261,-14.1904 -70.82332,-21.91593 -73.81497,-23.80971 -1.21877,-0.77152 2.259,-2.37953 11.02829,-5.09915 17.73535,-5.50028 89.65611,-26.56259 102.52571,-30.02509 l 10.57313,-2.84466 23.16045,6.64047 c 54.99759,15.76874 102.87865,30.49276 101.97916,31.35991 -0.97136,0.93642 -58.75697,18.55199 -101.41545,30.91585 -12.42821,3.6021 -24.10522,6.51697 -25.94891,6.47749 -1.84368,-0.0395 -23.48302,-6.16628 -48.08741,-13.61511 z m 1.35912,-32.31828 c 12.43935,-3.18142 27.54648,-7.23316 33.5714,-9.00389 6.02493,-1.77073 11.42554,-2.92834 12.00138,-2.57244 0.57583,0.35588 1.04697,3.23993 1.04697,6.40899 0,5.72588 1.5983,7.63554 3.1048,3.70966 0.43315,-1.12877 0.78754,-3.72163 0.78754,-5.76194 0,-4.98664 1.06451,-5.37185 8.53626,-3.08896 11.2023,3.4227 60.80185,16.07853 62.82323,16.02999 3.49722,-0.084 -13.12423,-6.36869 -38.97895,-14.73833 -28.31658,-9.16658 -33.65452,-11.50066 -33.72994,-14.74892 -0.0372,-1.60189 -0.57976,-1.26571 -1.91063,1.18387 -1.62378,2.9887 -5.92171,4.75787 -34.00599,13.99794 -47.75883,15.71323 -52.08612,18.51751 -13.24607,8.58403 z m -83.1248,-2.40221 c 0,-2.21746 10.21859,-14.15407 16.8846,-19.72338 15.47554,-12.92944 43.28736,-23.58789 74.5853,-28.58365 18.131,-2.89407 62.68594,-2.84031 81.05191,0.0978 33.92487,5.42715 64.40185,18.31743 79.86232,33.77791 6.62009,6.62009 11.88565,14.37735 10.61899,15.64401 -0.62158,0.62159 -29.28964,-7.51365 -89.96771,-25.53044 -21.5033,-6.38486 -40.17021,-11.60882 -41.482,-11.60882 -1.3118,0 -30.85386,8.46583 -65.64903,18.81296 -34.79516,10.34713 -63.85803,18.81296 -64.58415,18.81296 -0.72613,0 -1.32023,-0.76471 -1.32023,-1.69936 z"
     style="fill:#000000;stroke-width:1.29745"
     id="path3108" />
</svg>
